<svg width="84" height="84" viewBox="0 0 84 84" fill="none" xmlns="http://www.w3.org/2000/svg">
<path d="M28.3337 38.7285C27.9432 39.1158 27.6332 39.5767 27.4216 40.0844C27.2101 40.5922 27.1012 41.1368 27.1012 41.6868C27.1012 42.2369 27.2101 42.7815 27.4216 43.2892C27.6332 43.797 27.9432 44.2578 28.3337 44.6452C29.1144 45.4212 30.1704 45.8568 31.2712 45.8568C32.372 45.8568 33.428 45.4212 34.2087 44.6452C34.5992 44.2578 34.9092 43.797 35.1207 43.2892C35.3323 42.7815 35.4412 42.2369 35.4412 41.6868C35.4412 41.1368 35.3323 40.5922 35.1207 40.0844C34.9092 39.5767 34.5992 39.1158 34.2087 38.7285C33.428 37.9524 32.372 37.5169 31.2712 37.5169C30.1704 37.5169 29.1144 37.9524 28.3337 38.7285ZM38.6254 49.0618C37.8493 49.8425 37.4137 50.8986 37.4137 51.9993C37.4137 53.1001 37.8493 54.1562 38.6254 54.9368C39.0127 55.3274 39.4735 55.6373 39.9813 55.8489C40.489 56.0604 41.0336 56.1693 41.5837 56.1693C42.1337 56.1693 42.6784 56.0604 43.1861 55.8489C43.6938 55.6373 44.1547 55.3274 44.542 54.9368C45.3181 54.1562 45.7537 53.1001 45.7537 51.9993C45.7537 50.8986 45.3181 49.8425 44.542 49.0618C44.1547 48.6713 43.6938 48.3613 43.1861 48.1498C42.6784 47.9382 42.1337 47.8293 41.5837 47.8293C41.0336 47.8293 40.489 47.9382 39.9813 48.1498C39.4735 48.3613 39.0127 48.6713 38.6254 49.0618ZM76.1254 7.39516C71.5929 2.82527 65.4725 0.179557 59.0384 0.00880789C52.6043 -0.161941 46.3522 2.15543 41.5837 6.4785C36.8372 2.20591 30.6356 -0.0882525 24.2513 0.0667073C17.8669 0.221667 11.7839 2.814 7.25036 7.31183C2.74626 11.8528 0.153895 17.9474 0.00663427 24.3416C-0.140626 30.7358 2.16842 36.9433 6.45869 41.6868C3.25108 45.2728 1.14635 49.7082 0.397072 54.4607C-0.352207 59.2133 0.285795 64.0811 2.23452 68.48C4.18324 72.8789 7.3599 76.6221 11.3833 79.2603C15.4067 81.8986 20.1059 83.3198 24.917 83.3535C31.0846 83.3601 37.0309 81.0559 41.5837 76.8952C46.3325 81.18 52.543 83.4817 58.9372 83.3267C65.3315 83.1716 71.4231 80.5717 75.9587 76.0618C80.457 71.5154 83.0418 65.4179 83.1813 59.0237C83.3208 52.6296 81.0044 46.4251 76.7087 41.6868C81.0044 36.9485 83.3208 30.7441 83.1813 24.3499C83.0418 17.9558 80.457 11.8582 75.9587 7.31183L76.1254 7.39516ZM70.042 13.2285C72.9397 16.2093 74.6188 20.1653 74.7498 24.3203C74.8809 28.4754 73.4544 32.5294 70.7504 35.6868L47.5837 12.5202C50.7688 9.87739 54.8104 8.49061 58.947 8.62108C63.0837 8.75155 67.0298 10.3903 70.042 13.2285ZM13.1254 70.1452C10.2277 67.1644 8.54863 63.2083 8.41759 59.0533C8.28654 54.8983 9.71299 50.8443 12.417 47.6868L35.7504 71.0202C32.53 73.6786 28.4438 75.0587 24.271 74.8973C20.0982 74.7359 16.1308 73.0444 13.1254 70.1452ZM70.042 70.1452C66.8784 73.1708 62.6696 74.8595 58.292 74.8595C53.9145 74.8595 49.7056 73.1708 46.542 70.1452L13.2087 36.8118C10.1045 33.6891 8.36215 29.4649 8.36215 25.0618C8.36215 20.6587 10.1045 16.4345 13.2087 13.3118C16.3314 10.2076 20.5556 8.46528 24.9587 8.46528C29.3618 8.46528 33.586 10.2076 36.7087 13.3118L70.042 46.6452C73.1462 49.7679 74.8886 53.9921 74.8886 58.3952C74.8886 62.7983 73.1462 67.0224 70.042 70.1452ZM48.9587 38.7285C48.5682 39.1158 48.2582 39.5767 48.0466 40.0844C47.8351 40.5922 47.7262 41.1368 47.7262 41.6868C47.7262 42.2369 47.8351 42.7815 48.0466 43.2892C48.2582 43.797 48.5682 44.2578 48.9587 44.6452C49.7394 45.4212 50.7954 45.8568 51.8962 45.8568C52.997 45.8568 54.053 45.4212 54.8337 44.6452C55.2242 44.2578 55.5342 43.797 55.7457 43.2892C55.9573 42.7815 56.0662 42.2369 56.0662 41.6868C56.0662 41.1368 55.9573 40.5922 55.7457 40.0844C55.5342 39.5767 55.2242 39.1158 54.8337 38.7285C54.053 37.9524 52.997 37.5169 51.8962 37.5169C50.7954 37.5169 49.7394 37.9524 48.9587 38.7285ZM38.6254 28.4368C37.8493 29.2175 37.4137 30.2736 37.4137 31.3743C37.4137 32.4751 37.8493 33.5311 38.6254 34.3118C39.0127 34.7024 39.4735 35.0123 39.9813 35.2239C40.489 35.4354 41.0336 35.5443 41.5837 35.5443C42.1337 35.5443 42.6784 35.4354 43.1861 35.2239C43.6938 35.0123 44.1547 34.7024 44.542 34.3118C45.3181 33.5311 45.7537 32.4751 45.7537 31.3743C45.7537 30.2736 45.3181 29.2175 44.542 28.4368C44.1547 28.0463 43.6938 27.7363 43.1861 27.5248C42.6784 27.3132 42.1337 27.2043 41.5837 27.2043C41.0336 27.2043 40.489 27.3132 39.9813 27.5248C39.4735 27.7363 39.0127 28.0463 38.6254 28.4368Z" fill="#121827"/>
</svg>
